<svg width="80" height="80" viewBox="0 0 80 80" fill="none" xmlns="http://www.w3.org/2000/svg">
<g clip-path="url(#clip0_47_924)">
<path d="M76 0H4C2.93913 0 1.92172 0.421427 1.17157 1.17157C0.421427 1.92172 0 2.93913 0 4L0 76C0 77.0609 0.421427 78.0783 1.17157 78.8284C1.92172 79.5786 2.93913 80 4 80H76C77.0609 80 78.0783 79.5786 78.8284 78.8284C79.5786 78.0783 80 77.0609 80 76V4C80 2.93913 79.5786 1.92172 78.8284 1.17157C78.0783 0.421427 77.0609 0 76 0ZM4 2.66667H76C76.3536 2.66667 76.6928 2.80714 76.9428 3.05719C77.1929 3.30724 77.3333 3.64638 77.3333 4V10.6667H2.66667V4C2.66667 3.64638 2.80714 3.30724 3.05719 3.05719C3.30724 2.80714 3.64638 2.66667 4 2.66667ZM76 77.3333H4C3.64638 77.3333 3.30724 77.1929 3.05719 76.9428C2.80714 76.6928 2.66667 76.3536 2.66667 76V13.3333H77.3333V76C77.3333 76.3536 77.1929 76.6928 76.9428 76.9428C76.6928 77.1929 76.3536 77.3333 76 77.3333Z" fill="#35C4E8"/>
<path d="M68 24H52C50.9392 24 49.9217 24.4214 49.1716 25.1716C48.4215 25.9217 48 26.9391 48 28V29.3333H33.2654C32.9233 25.9298 31.2862 22.7879 28.6927 20.5575C26.0992 18.3271 22.7477 17.1788 19.3314 17.35C15.915 17.5213 12.6951 18.999 10.3377 21.4776C7.9802 23.9562 6.66553 27.246 6.66553 30.6666C6.66553 34.0873 7.9802 37.3771 10.3377 39.8557C12.6951 42.3343 15.915 43.812 19.3314 43.9833C22.7477 44.1545 26.0992 43.0062 28.6927 40.7758C31.2862 38.5454 32.9233 35.4035 33.2654 32H48V33.3333C48 34.3942 48.4215 35.4116 49.1716 36.1617C49.9217 36.9119 50.9392 37.3333 52 37.3333H58.6667V41.3333H52C50.9392 41.3333 49.9217 41.7547 49.1716 42.5049C48.4215 43.255 48 44.2724 48 45.3333V50.6667C48 51.7275 48.4215 52.7449 49.1716 53.4951C49.9217 54.2452 50.9392 54.6667 52 54.6667H58.6667V58.6667H52C50.9392 58.6667 49.9217 59.0881 49.1716 59.8382C48.4215 60.5884 48 61.6058 48 62.6667V64H33.2C32.8906 62.4952 32.0718 61.1431 30.8817 60.1716C29.6916 59.2001 28.203 58.6686 26.6667 58.6667H16C14.2319 58.6667 12.5362 59.369 11.286 60.6193C10.0357 61.8695 9.33336 63.5652 9.33336 65.3333C9.33336 67.1014 10.0357 68.7971 11.286 70.0474C12.5362 71.2976 14.2319 72 16 72H26.6667C28.203 71.998 29.6916 71.4665 30.8817 70.495C32.0718 69.5235 32.8906 68.1714 33.2 66.6667H48V68C48 69.0609 48.4215 70.0783 49.1716 70.8284C49.9217 71.5786 50.9392 72 52 72H68C69.0609 72 70.0783 71.5786 70.8285 70.8284C71.5786 70.0783 72 69.0609 72 68V62.6667C72 61.6058 71.5786 60.5884 70.8285 59.8382C70.0783 59.0881 69.0609 58.6667 68 58.6667H61.3334V54.6667H68C69.0609 54.6667 70.0783 54.2452 70.8285 53.4951C71.5786 52.7449 72 51.7275 72 50.6667V45.3333C72 44.2724 71.5786 43.255 70.8285 42.5049C70.0783 41.7547 69.0609 41.3333 68 41.3333H61.3334V37.3333H68C69.0609 37.3333 70.0783 36.9119 70.8285 36.1617C71.5786 35.4116 72 34.3942 72 33.3333V28C72 26.9391 71.5786 25.9217 70.8285 25.1716C70.0783 24.4214 69.0609 24 68 24ZM13.6907 39.2467C14.1246 37.9152 14.9687 36.7552 16.1019 35.9326C17.2352 35.1101 18.5997 34.6671 20 34.6671C21.4004 34.6671 22.7648 35.1101 23.8981 35.9326C25.0314 36.7552 25.8754 37.9152 26.3094 39.2467C24.4849 40.6018 22.2727 41.3335 20 41.3335C17.7274 41.3335 15.5151 40.6018 13.6907 39.2467ZM17.3334 29.3333C17.3334 28.6261 17.6143 27.9478 18.1144 27.4477C18.6145 26.9476 19.2928 26.6666 20 26.6666C20.7073 26.6666 21.3855 26.9476 21.8856 27.4477C22.3857 27.9478 22.6667 28.6261 22.6667 29.3333C22.6667 30.0406 22.3857 30.7188 21.8856 31.2189C21.3855 31.719 20.7073 32 20 32C19.2928 32 18.6145 31.719 18.1144 31.2189C17.6143 30.7188 17.3334 30.0406 17.3334 29.3333ZM28.3627 37.268C27.4252 35.3523 25.8609 33.8148 23.9294 32.9107C24.6294 32.1478 25.0924 31.1977 25.2616 30.1763C25.4309 29.1548 25.2992 28.1062 24.8825 27.1584C24.4659 26.2105 23.7824 25.4044 22.9154 24.8384C22.0484 24.2725 21.0354 23.9711 20 23.9711C18.9647 23.9711 17.9517 24.2725 17.0847 24.8384C16.2177 25.4044 15.5342 26.2105 15.1175 27.1584C14.7009 28.1062 14.5692 29.1548 14.7384 30.1763C14.9077 31.1977 15.3706 32.1478 16.0707 32.9107C14.1391 33.8148 12.5748 35.3523 11.6374 37.268C10.3929 35.6963 9.61659 33.8058 9.39734 31.8131C9.1781 29.8204 9.52483 27.8063 10.3978 26.0017C11.2707 24.1971 12.6345 22.6749 14.3329 21.6099C16.0312 20.5448 17.9953 19.9799 20 19.9799C22.0047 19.9799 23.9688 20.5448 25.6672 21.6099C27.3655 22.6749 28.7293 24.1971 29.6023 26.0017C30.4752 27.8063 30.822 29.8204 30.6027 31.8131C30.3835 33.8058 29.6071 35.6963 28.3627 37.268ZM26.6667 69.3333H16C14.9392 69.3333 13.9217 68.9119 13.1716 68.1617C12.4215 67.4116 12 66.3942 12 65.3333C12 64.2725 12.4215 63.255 13.1716 62.5049C13.9217 61.7547 14.9392 61.3333 16 61.3333H26.6667C27.7276 61.3333 28.745 61.7547 29.4951 62.5049C30.2453 63.255 30.6667 64.2725 30.6667 65.3333C30.6667 66.3942 30.2453 67.4116 29.4951 68.1617C28.745 68.9119 27.7276 69.3333 26.6667 69.3333ZM69.3334 62.6667V68C69.3334 68.3536 69.1929 68.6927 68.9428 68.9428C68.6928 69.1928 68.3536 69.3333 68 69.3333H52C51.6464 69.3333 51.3073 69.1928 51.0572 68.9428C50.8072 68.6927 50.6667 68.3536 50.6667 68V62.6667C50.6667 62.313 50.8072 61.9739 51.0572 61.7238C51.3073 61.4738 51.6464 61.3333 52 61.3333H68C68.3536 61.3333 68.6928 61.4738 68.9428 61.7238C69.1929 61.9739 69.3334 62.313 69.3334 62.6667ZM69.3334 45.3333V50.6667C69.3334 51.0203 69.1929 51.3594 68.9428 51.6095C68.6928 51.8595 68.3536 52 68 52H52C51.6464 52 51.3073 51.8595 51.0572 51.6095C50.8072 51.3594 50.6667 51.0203 50.6667 50.6667V45.3333C50.6667 44.9797 50.8072 44.6406 51.0572 44.3905C51.3073 44.1405 51.6464 44 52 44H68C68.3536 44 68.6928 44.1405 68.9428 44.3905C69.1929 44.6406 69.3334 44.9797 69.3334 45.3333ZM69.3334 33.3333C69.3334 33.6869 69.1929 34.0261 68.9428 34.2761C68.6928 34.5262 68.3536 34.6666 68 34.6666H52C51.6464 34.6666 51.3073 34.5262 51.0572 34.2761C50.8072 34.0261 50.6667 33.6869 50.6667 33.3333V28C50.6667 27.6464 50.8072 27.3072 51.0572 27.0572C51.3073 26.8071 51.6464 26.6666 52 26.6666H68C68.3536 26.6666 68.6928 26.8071 68.9428 27.0572C69.1929 27.3072 69.3334 27.6464 69.3334 28V33.3333ZM8.00003 7.99998H9.33336C9.68698 7.99998 10.0261 7.8595 10.2762 7.60946C10.5262 7.35941 10.6667 7.02027 10.6667 6.66665C10.6667 6.31302 10.5262 5.97389 10.2762 5.72384C10.0261 5.47379 9.68698 5.33331 9.33336 5.33331H8.00003C7.6464 5.33331 7.30727 5.47379 7.05722 5.72384C6.80717 5.97389 6.66669 6.31302 6.66669 6.66665C6.66669 7.02027 6.80717 7.35941 7.05722 7.60946C7.30727 7.8595 7.6464 7.99998 8.00003 7.99998ZM16 7.99998H17.3334C17.687 7.99998 18.0261 7.8595 18.2762 7.60946C18.5262 7.35941 18.6667 7.02027 18.6667 6.66665C18.6667 6.31302 18.5262 5.97389 18.2762 5.72384C18.0261 5.47379 17.687 5.33331 17.3334 5.33331H16C15.6464 5.33331 15.3073 5.47379 15.0572 5.72384C14.8072 5.97389 14.6667 6.31302 14.6667 6.66665C14.6667 7.02027 14.8072 7.35941 15.0572 7.60946C15.3073 7.8595 15.6464 7.99998 16 7.99998Z" fill="#35C4E8"/>
<path d="M56.0001 29.3333H54.6667C54.3131 29.3333 53.974 29.4738 53.7239 29.7238C53.4739 29.9739 53.3334 30.313 53.3334 30.6666C53.3334 31.0203 53.4739 31.3594 53.7239 31.6095C53.974 31.8595 54.3131 32 54.6667 32H56.0001C56.3537 32 56.6928 31.8595 56.9429 31.6095C57.1929 31.3594 57.3334 31.0203 57.3334 30.6666C57.3334 30.313 57.1929 29.9739 56.9429 29.7238C56.6928 29.4738 56.3537 29.3333 56.0001 29.3333ZM65.3334 29.3333H61.3334C60.9798 29.3333 60.6407 29.4738 60.3906 29.7238C60.1406 29.9739 60.0001 30.313 60.0001 30.6666C60.0001 31.0203 60.1406 31.3594 60.3906 31.6095C60.6407 31.8595 60.9798 32 61.3334 32H65.3334C65.687 32 66.0262 31.8595 66.2762 31.6095C66.5263 31.3594 66.6667 31.0203 66.6667 30.6666C66.6667 30.313 66.5263 29.9739 66.2762 29.7238C66.0262 29.4738 65.687 29.3333 65.3334 29.3333ZM56.0001 46.6666H54.6667C54.3131 46.6666 53.974 46.8071 53.7239 47.0572C53.4739 47.3072 53.3334 47.6464 53.3334 48C53.3334 48.3536 53.4739 48.6927 53.7239 48.9428C53.974 49.1928 54.3131 49.3333 54.6667 49.3333H56.0001C56.3537 49.3333 56.6928 49.1928 56.9429 48.9428C57.1929 48.6927 57.3334 48.3536 57.3334 48C57.3334 47.6464 57.1929 47.3072 56.9429 47.0572C56.6928 46.8071 56.3537 46.6666 56.0001 46.6666ZM61.3334 49.3333H65.3334C65.687 49.3333 66.0262 49.1928 66.2762 48.9428C66.5263 48.6927 66.6667 48.3536 66.6667 48C66.6667 47.6464 66.5263 47.3072 66.2762 47.0572C66.0262 46.8071 65.687 46.6666 65.3334 46.6666H61.3334C60.9798 46.6666 60.6407 46.8071 60.3906 47.0572C60.1406 47.3072 60.0001 47.6464 60.0001 48C60.0001 48.3536 60.1406 48.6927 60.3906 48.9428C60.6407 49.1928 60.9798 49.3333 61.3334 49.3333ZM56.0001 64H54.6667C54.3131 64 53.974 64.1405 53.7239 64.3905C53.4739 64.6406 53.3334 64.9797 53.3334 65.3333C53.3334 65.6869 53.4739 66.0261 53.7239 66.2761C53.974 66.5262 54.3131 66.6666 54.6667 66.6666H56.0001C56.3537 66.6666 56.6928 66.5262 56.9429 66.2761C57.1929 66.0261 57.3334 65.6869 57.3334 65.3333C57.3334 64.9797 57.1929 64.6406 56.9429 64.3905C56.6928 64.1405 56.3537 64 56.0001 64ZM61.3334 66.6666H65.3334C65.687 66.6666 66.0262 66.5262 66.2762 66.2761C66.5263 66.0261 66.6667 65.6869 66.6667 65.3333C66.6667 64.9797 66.5263 64.6406 66.2762 64.3905C66.0262 64.1405 65.687 64 65.3334 64H61.3334C60.9798 64 60.6407 64.1405 60.3906 64.3905C60.1406 64.6406 60.0001 64.9797 60.0001 65.3333C60.0001 65.6869 60.1406 66.0261 60.3906 66.2761C60.6407 66.5262 60.9798 66.6666 61.3334 66.6666ZM17.3334 64H16.0001C15.6465 64 15.3073 64.1405 15.0573 64.3905C14.8072 64.6406 14.6667 64.9797 14.6667 65.3333C14.6667 65.6869 14.8072 66.0261 15.0573 66.2761C15.3073 66.5262 15.6465 66.6666 16.0001 66.6666H17.3334C17.687 66.6666 18.0262 66.5262 18.2762 66.2761C18.5263 66.0261 18.6667 65.6869 18.6667 65.3333C18.6667 64.9797 18.5263 64.6406 18.2762 64.3905C18.0262 64.1405 17.687 64 17.3334 64ZM26.6667 64H22.6667C22.3131 64 21.974 64.1405 21.7239 64.3905C21.4739 64.6406 21.3334 64.9797 21.3334 65.3333C21.3334 65.6869 21.4739 66.0261 21.7239 66.2761C21.974 66.5262 22.3131 66.6666 22.6667 66.6666H26.6667C27.0204 66.6666 27.3595 66.5262 27.6096 66.2761C27.8596 66.0261 28.0001 65.6869 28.0001 65.3333C28.0001 64.9797 27.8596 64.6406 27.6096 64.3905C27.3595 64.1405 27.0204 64 26.6667 64Z" fill="#35C4E8"/>
</g>
<defs>
<clipPath id="clip0_47_924">
<rect width="80" height="80" fill="white"/>
</clipPath>
</defs>
</svg>
