<svg width="80" height="80" viewBox="0 0 80 80" fill="none" xmlns="http://www.w3.org/2000/svg">
<path d="M67.5 12.6258V6.25C67.5 4.18234 65.8177 2.5 63.75 2.5H16.25C14.1823 2.5 12.5 4.18234 12.5 6.25V12.6258C9.65062 13.2064 7.5 15.7317 7.5 18.75V56.25C7.5 59.6963 10.3038 62.5 13.75 62.5H32.1491L30.2741 70H26.25C22.8038 70 20 72.8037 20 76.25C20 76.5815 20.1317 76.8995 20.3661 77.1339C20.6005 77.3683 20.9185 77.5 21.25 77.5H58.75C59.0815 77.5 59.3995 77.3683 59.6339 77.1339C59.8683 76.8995 60 76.5815 60 76.25C60 72.8037 57.1963 70 53.75 70H49.7259L47.8509 62.5H66.25C69.6963 62.5 72.5 59.6963 72.5 56.25V18.75C72.5 15.7317 70.3494 13.2064 67.5 12.6258ZM70 18.75V52.5H54.2678L56.7678 50H63.75C65.8177 50 67.5 48.3177 67.5 46.25V15.215C68.9548 15.7311 70 17.1205 70 18.75ZM36.5373 52.0978C34.9121 51.7141 33.363 51.0597 31.955 50.1619C31.715 50.0091 31.4302 49.9427 31.1474 49.9737C30.8646 50.0047 30.6008 50.1312 30.3997 50.3323L28.75 51.9822L25.5178 48.75L27.1677 47.1002C27.3688 46.899 27.4953 46.6353 27.5263 46.3525C27.5573 46.0697 27.4909 45.7848 27.3381 45.5448C26.4403 44.1368 25.7858 42.5877 25.4022 40.9625C25.3375 40.6885 25.1821 40.4443 24.9613 40.2696C24.7405 40.0949 24.4672 39.9998 24.1856 39.9998H22.5V34.9998H24.1856C24.4672 34.9999 24.7405 34.9048 24.9613 34.7301C25.1821 34.5554 25.3375 34.3112 25.4022 34.0372C25.7858 32.4119 26.4403 30.8629 27.3381 29.4548C27.4909 29.2149 27.5573 28.93 27.5263 28.6472C27.4953 28.3644 27.3688 28.1007 27.1677 27.8995L25.5178 26.25L28.75 23.0178L30.3998 24.6677C30.601 24.8688 30.8647 24.9953 31.1475 25.0263C31.4303 25.0573 31.7152 24.9909 31.9552 24.8381C33.3632 23.9403 34.9123 23.2859 36.5375 22.9022C36.8115 22.8375 37.0557 22.6821 37.2304 22.4613C37.4051 22.2405 37.5002 21.9672 37.5002 21.6856V20H42.5002V21.6856C42.5001 21.9672 42.5952 22.2405 42.7699 22.4613C42.9446 22.6821 43.1888 22.8375 43.4628 22.9022C45.0881 23.2858 46.6371 23.9403 48.0452 24.8381C48.2851 24.9909 48.57 25.0573 48.8528 25.0263C49.1356 24.9953 49.3993 24.8688 49.6005 24.6677L51.25 23.0178L54.4822 26.25L52.8323 27.8998C52.6312 28.101 52.5047 28.3647 52.4737 28.6475C52.4427 28.9303 52.5091 29.2152 52.6619 29.4552C53.5597 30.8632 54.2141 32.4123 54.5977 34.0375C54.6624 34.3115 54.8177 34.5557 55.0385 34.7304C55.2593 34.9051 55.5327 35.0002 55.8142 35.0002H57.5V40.0002H55.8142C55.5327 40.0001 55.2593 40.0952 55.0385 40.2699C54.8177 40.4446 54.6624 40.6888 54.5977 40.9628C54.2141 42.588 53.5597 44.1371 52.6619 45.5452C52.5091 45.7851 52.4427 46.07 52.4737 46.3528C52.5047 46.6356 52.6312 46.8993 52.8323 47.1005L54.4822 48.75L51.25 51.9822L49.6002 50.3323C49.399 50.1312 49.1353 50.0047 48.8525 49.9737C48.5697 49.9427 48.2848 50.0091 48.0448 50.1619C46.6368 51.0596 45.0877 51.7141 43.4625 52.0978C43.1885 52.1625 42.9443 52.3179 42.7696 52.5387C42.5949 52.7595 42.4998 53.0328 42.4998 53.3144V55H37.4998V53.3144C37.4999 53.0328 37.4049 52.7595 37.2302 52.5387C37.0555 52.3179 36.8114 52.1625 36.5373 52.0978ZM23.2322 47.5H16.25C15.5608 47.5 15 46.9392 15 46.25V15H65V46.25C65 46.9392 64.4392 47.5 63.75 47.5H56.7678L55.2886 46.0208C55.9119 44.9055 56.4102 43.7247 56.7744 42.5H58.75C59.0815 42.5 59.3995 42.3683 59.6339 42.1339C59.8683 41.8995 60 41.5815 60 41.25V33.75C60 33.4185 59.8683 33.1005 59.6339 32.8661C59.3995 32.6317 59.0815 32.5 58.75 32.5H56.7742C56.41 31.2753 55.9118 30.0946 55.2884 28.9792L57.1339 27.1338C57.3683 26.8993 57.5 26.5814 57.5 26.2499C57.5 25.9184 57.3683 25.6005 57.1339 25.3661L52.1339 20.3661C51.8995 20.1317 51.5816 20 51.2501 20C50.9186 20 50.6007 20.1317 50.3662 20.3661L48.5208 22.2116C47.4055 21.5882 46.2247 21.0899 45 20.7258V18.75C45 18.4185 44.8683 18.1005 44.6339 17.8661C44.3995 17.6317 44.0815 17.5 43.75 17.5H36.25C35.9185 17.5 35.6005 17.6317 35.3661 17.8661C35.1317 18.1005 35 18.4185 35 18.75V20.7258C33.7753 21.0899 32.5945 21.5882 31.4792 22.2116L29.6338 20.3661C29.3993 20.1317 29.0814 20 28.7499 20C28.4184 20 28.1005 20.1317 27.8661 20.3661L22.8661 25.3661C22.75 25.4821 22.6579 25.6199 22.5951 25.7716C22.5322 25.9232 22.4999 26.0858 22.4999 26.2499C22.4999 26.4141 22.5322 26.5766 22.5951 26.7283C22.6579 26.8799 22.75 27.0177 22.8661 27.1338L24.7114 28.9792C24.088 30.0945 23.5897 31.2753 23.2256 32.5H21.25C20.9185 32.5 20.6005 32.6317 20.3661 32.8661C20.1317 33.1005 20 33.4185 20 33.75V41.25C20 41.5815 20.1317 41.8995 20.3661 42.1339C20.6005 42.3683 20.9185 42.5 21.25 42.5H23.2258C23.59 43.7247 24.0883 44.9054 24.7116 46.0208L23.2322 47.5ZM16.25 5H63.75C64.4392 5 65 5.56078 65 6.25V12.5H15V6.25C15 5.56078 15.5608 5 16.25 5ZM12.5 15.215V46.25C12.5 48.3177 14.1823 50 16.25 50H23.2322L25.7322 52.5H10V18.75C10 17.1205 11.0452 15.7311 12.5 15.215ZM57.2858 75H22.7142C23.2302 73.545 24.6203 72.5 26.25 72.5H53.75C55.3797 72.5 56.7698 73.545 57.2858 75ZM47.1491 70H32.8511L34.7261 62.5H45.2741L47.1491 70ZM66.25 60H13.75C11.6822 60 10 58.3178 10 56.25V55H28.75C28.9142 55.0002 29.0768 54.968 29.2285 54.9052C29.3802 54.8423 29.518 54.7501 29.6339 54.6339L31.4794 52.7884C32.5947 53.4118 33.7754 53.9101 35.0002 54.2742V56.25C35.0002 56.5815 35.1319 56.8995 35.3663 57.1339C35.6007 57.3683 35.9186 57.5 36.2502 57.5H43.7502C44.0817 57.5 44.3996 57.3683 44.634 57.1339C44.8685 56.8995 45.0002 56.5815 45.0002 56.25V54.2742C46.2248 53.91 47.4056 53.4118 48.5209 52.7884L50.3664 54.6339C50.4823 54.7502 50.6201 54.8424 50.7718 54.9052C50.9235 54.968 51.0861 55.0002 51.2503 55H70.0003V56.25C70 58.3178 68.3178 60 66.25 60ZM17.5 8.75C17.5 8.41848 17.6317 8.10054 17.8661 7.86612C18.1005 7.6317 18.4185 7.5 18.75 7.5C19.0815 7.5 19.3995 7.6317 19.6339 7.86612C19.8683 8.10054 20 8.41848 20 8.75C20 9.08152 19.8683 9.39946 19.6339 9.63388C19.3995 9.8683 19.0815 10 18.75 10C18.4185 10 18.1005 9.8683 17.8661 9.63388C17.6317 9.39946 17.5 9.08152 17.5 8.75ZM22.5 8.75C22.5 8.41848 22.6317 8.10054 22.8661 7.86612C23.1005 7.6317 23.4185 7.5 23.75 7.5C24.0815 7.5 24.3995 7.6317 24.6339 7.86612C24.8683 8.10054 25 8.41848 25 8.75C25 9.08152 24.8683 9.39946 24.6339 9.63388C24.3995 9.8683 24.0815 10 23.75 10C23.4185 10 23.1005 9.8683 22.8661 9.63388C22.6317 9.39946 22.5 9.08152 22.5 8.75ZM27.5 8.75C27.5 8.41848 27.6317 8.10054 27.8661 7.86612C28.1005 7.6317 28.4185 7.5 28.75 7.5C29.0815 7.5 29.3995 7.6317 29.6339 7.86612C29.8683 8.10054 30 8.41848 30 8.75C30 9.08152 29.8683 9.39946 29.6339 9.63388C29.3995 9.8683 29.0815 10 28.75 10C28.4185 10 28.1005 9.8683 27.8661 9.63388C27.6317 9.39946 27.5 9.08152 27.5 8.75ZM52.5 37.5C52.5 30.6075 46.8925 25 40 25C33.1075 25 27.5 30.6075 27.5 37.5C27.5 44.3925 33.1075 50 40 50C46.8925 50 52.5 44.3925 52.5 37.5ZM37.825 42.5H42.175C41.6797 45.8881 40.7173 47.5 40 47.5C39.2827 47.5 38.3205 45.8881 37.825 42.5ZM37.5 37.5C37.5 36.6036 37.5264 35.7717 37.5734 35H42.4267C42.4738 35.7717 42.5002 36.6036 42.5002 37.5C42.5002 38.3964 42.4738 39.2283 42.4267 40H37.5734C37.5236 39.1676 37.4991 38.3339 37.5 37.5ZM40 27.5C40.7173 27.5 41.6795 29.1119 42.175 32.5H37.825C38.3205 29.1119 39.2827 27.5 40 27.5ZM43.6591 46.8036C44.173 45.5241 44.4953 44.0005 44.6942 42.5H48.6547C47.5284 44.4419 45.7686 45.9709 43.6591 46.8036ZM49.6836 40H44.9278C45.0243 38.3347 45.0243 36.6653 44.9278 35H49.6836C49.8902 35.7994 50 36.637 50 37.5C50 38.363 49.89 39.2006 49.6836 40ZM48.6547 32.5H44.6942C44.4955 30.9995 44.1731 29.4759 43.6591 28.1964C45.7686 29.0291 47.5284 30.5581 48.6547 32.5ZM36.3409 28.1964C35.827 29.4759 35.5045 30.9995 35.3058 32.5H31.3453C32.4716 30.5581 34.2314 29.0291 36.3409 28.1964ZM30.3164 35H35.0722C34.9757 36.6653 34.9757 38.3347 35.0722 40H30.3164C30.1098 39.2006 30 38.363 30 37.5C30 36.637 30.11 35.7994 30.3164 35ZM31.3453 42.5H35.3058C35.5045 44.0006 35.8269 45.5241 36.3409 46.8036C34.2314 45.9709 32.4716 44.4419 31.3453 42.5Z" fill="#35C4E8"/>
</svg>
