<svg width="80" height="80" viewBox="0 0 80 80" fill="none" xmlns="http://www.w3.org/2000/svg">
<path d="M73.75 2.5H6.25C5.25635 2.50297 4.30425 2.89901 3.60163 3.60163C2.89901 4.30425 2.50297 5.25635 2.5 6.25V73.75C2.50297 74.7437 2.89901 75.6958 3.60163 76.3984C4.30425 77.101 5.25635 77.497 6.25 77.5H73.75C74.7437 77.497 75.6958 77.101 76.3984 76.3984C77.101 75.6958 77.497 74.7437 77.5 73.75V6.25C77.497 5.25635 77.101 4.30425 76.3984 3.60163C75.6958 2.89901 74.7437 2.50297 73.75 2.5ZM75 73.75C75 74.0815 74.8683 74.3995 74.6339 74.6339C74.3995 74.8683 74.0815 75 73.75 75H6.25C5.91848 75 5.60054 74.8683 5.36612 74.6339C5.1317 74.3995 5 74.0815 5 73.75V15H75V73.75ZM75 12.5H5V6.25C5 5.91848 5.1317 5.60054 5.36612 5.36612C5.60054 5.1317 5.91848 5 6.25 5H73.75C74.0815 5 74.3995 5.1317 74.6339 5.36612C74.8683 5.60054 75 5.91848 75 6.25V12.5Z" fill="#35C4E8"/>
<path d="M70 7.5H72.5V10H70V7.5ZM65 7.5H67.5V10H65V7.5ZM18.75 18.75H38.75V21.25H18.75V18.75ZM18.75 23.75H38.75V26.25H18.75V23.75ZM18.75 33.75H38.75V36.25H18.75V33.75ZM18.75 38.75H38.75V41.25H18.75V38.75ZM18.75 28.75H38.75V31.25H18.75V28.75ZM66.25 17.5H48.75C47.093 17.502 45.5045 18.1611 44.3328 19.3328C43.1611 20.5044 42.502 22.093 42.5 23.75V36.25C42.502 37.907 43.1611 39.4956 44.3328 40.6672C45.5045 41.8389 47.093 42.498 48.75 42.5H66.25C67.907 42.498 69.4956 41.8389 70.6672 40.6672C71.8389 39.4956 72.498 37.907 72.5 36.25V23.75C72.498 22.093 71.8389 20.5044 70.6672 19.3328C69.4956 18.1611 67.907 17.502 66.25 17.5ZM70 36.25C70 37.2446 69.6049 38.1984 68.9016 38.9017C68.1984 39.6049 67.2446 40 66.25 40H48.75C47.7554 40 46.8016 39.6049 46.0984 38.9017C45.3951 38.1984 45 37.2446 45 36.25V23.75C45 22.7554 45.3951 21.8016 46.0984 21.0983C46.8016 20.3951 47.7554 20 48.75 20H66.25C67.2446 20 68.1984 20.3951 68.9016 21.0983C69.6049 21.8016 70 22.7554 70 23.75V36.25ZM66.25 45H48.75C47.093 45.002 45.5045 45.6611 44.3328 46.8328C43.1611 48.0044 42.502 49.593 42.5 51.25V66.25C42.502 67.907 43.1611 69.4956 44.3328 70.6672C45.5045 71.8389 47.093 72.498 48.75 72.5H66.25C67.907 72.498 69.4956 71.8389 70.6672 70.6672C71.8389 69.4956 72.498 67.907 72.5 66.25V51.25C72.498 49.593 71.8389 48.0044 70.6672 46.8328C69.4956 45.6611 67.907 45.002 66.25 45ZM70 66.25C70 67.2446 69.6049 68.1984 68.9016 68.9016C68.1984 69.6049 67.2446 70 66.25 70H48.75C47.7554 70 46.8016 69.6049 46.0984 68.9016C45.3951 68.1984 45 67.2446 45 66.25V51.25C45 50.2554 45.3951 49.3016 46.0984 48.5984C46.8016 47.8951 47.7554 47.5 48.75 47.5H66.25C67.2446 47.5 68.1984 47.8951 68.9016 48.5984C69.6049 49.3016 70 50.2554 70 51.25V66.25ZM11.25 17.5C10.2611 17.5 9.2944 17.7932 8.47215 18.3427C7.64991 18.8921 7.00904 19.673 6.6306 20.5866C6.25217 21.5002 6.15315 22.5055 6.34608 23.4755C6.539 24.4454 7.01521 25.3363 7.71447 26.0355C8.41373 26.7348 9.30465 27.211 10.2746 27.4039C11.2445 27.5969 12.2498 27.4978 13.1634 27.1194C14.0771 26.741 14.8579 26.1001 15.4074 25.2779C15.9568 24.4556 16.25 23.4889 16.25 22.5C16.25 21.1739 15.7232 19.9021 14.7855 18.9645C13.8479 18.0268 12.5761 17.5 11.25 17.5ZM11.25 25C10.7555 25 10.2722 24.8534 9.86108 24.5787C9.44995 24.304 9.12952 23.9135 8.9403 23.4567C8.75108 22.9999 8.70158 22.4972 8.79804 22.0123C8.8945 21.5273 9.1326 21.0819 9.48223 20.7322C9.83187 20.3826 10.2773 20.1445 10.7623 20.048C11.2472 19.9516 11.7499 20.0011 12.2067 20.1903C12.6635 20.3795 13.054 20.7 13.3287 21.1111C13.6034 21.5222 13.75 22.0055 13.75 22.5C13.75 23.163 13.4866 23.7989 13.0178 24.2678C12.5489 24.7366 11.913 25 11.25 25ZM11.25 32.5C10.2611 32.5 9.2944 32.7932 8.47215 33.3427C7.64991 33.8921 7.00904 34.673 6.6306 35.5866C6.25217 36.5002 6.15315 37.5055 6.34608 38.4755C6.539 39.4454 7.01521 40.3363 7.71447 41.0355C8.41373 41.7348 9.30465 42.211 10.2746 42.4039C11.2445 42.5969 12.2498 42.4978 13.1634 42.1194C14.0771 41.741 14.8579 41.1001 15.4074 40.2779C15.9568 39.4556 16.25 38.4889 16.25 37.5C16.25 36.1739 15.7232 34.9021 14.7855 33.9645C13.8479 33.0268 12.5761 32.5 11.25 32.5ZM11.25 40C10.7555 40 10.2722 39.8534 9.86108 39.5787C9.44995 39.304 9.12952 38.9135 8.9403 38.4567C8.75108 37.9999 8.70158 37.4972 8.79804 37.0123C8.8945 36.5273 9.1326 36.0819 9.48223 35.7322C9.83187 35.3826 10.2773 35.1445 10.7623 35.048C11.2472 34.9516 11.7499 35.0011 12.2067 35.1903C12.6635 35.3795 13.054 35.7 13.3287 36.1111C13.6034 36.5222 13.75 37.0055 13.75 37.5C13.75 38.163 13.4866 38.7989 13.0178 39.2678C12.5489 39.7366 11.913 40 11.25 40ZM18.75 48.75H38.75V51.25H18.75V48.75ZM18.75 53.75H38.75V56.25H18.75V53.75ZM18.75 43.75H38.75V46.25H18.75V43.75ZM11.25 47.5C10.2611 47.5 9.2944 47.7932 8.47215 48.3427C7.64991 48.8921 7.00904 49.673 6.6306 50.5866C6.25217 51.5002 6.15315 52.5055 6.34608 53.4755C6.539 54.4454 7.01521 55.3363 7.71447 56.0355C8.41373 56.7348 9.30465 57.211 10.2746 57.4039C11.2445 57.5969 12.2498 57.4978 13.1634 57.1194C14.0771 56.741 14.8579 56.1001 15.4074 55.2779C15.9568 54.4556 16.25 53.4889 16.25 52.5C16.25 51.1739 15.7232 49.9021 14.7855 48.9645C13.8479 48.0268 12.5761 47.5 11.25 47.5ZM11.25 55C10.7555 55 10.2722 54.8534 9.86108 54.5787C9.44995 54.304 9.12952 53.9135 8.9403 53.4567C8.75108 52.9999 8.70158 52.4972 8.79804 52.0123C8.8945 51.5273 9.1326 51.0819 9.48223 50.7322C9.83187 50.3826 10.2773 50.1445 10.7623 50.048C11.2472 49.9516 11.7499 50.0011 12.2067 50.1903C12.6635 50.3795 13.054 50.7 13.3287 51.1111C13.6034 51.5222 13.75 52.0055 13.75 52.5C13.75 53.163 13.4866 53.7989 13.0178 54.2678C12.5489 54.7366 11.913 55 11.25 55ZM18.75 63.75H38.75V66.25H18.75V63.75ZM18.75 68.75H38.75V71.25H18.75V68.75ZM18.75 58.75H38.75V61.25H18.75V58.75ZM11.25 62.5C10.2611 62.5 9.2944 62.7932 8.47215 63.3427C7.64991 63.8921 7.00904 64.673 6.6306 65.5866C6.25217 66.5002 6.15315 67.5055 6.34608 68.4755C6.539 69.4454 7.01521 70.3363 7.71447 71.0355C8.41373 71.7348 9.30465 72.211 10.2746 72.4039C11.2445 72.5969 12.2498 72.4978 13.1634 72.1194C14.0771 71.741 14.8579 71.1001 15.4074 70.2779C15.9568 69.4556 16.25 68.4889 16.25 67.5C16.25 66.1739 15.7232 64.9021 14.7855 63.9645C13.8479 63.0268 12.5761 62.5 11.25 62.5ZM11.25 70C10.7555 70 10.2722 69.8534 9.86108 69.5787C9.44995 69.304 9.12952 68.9135 8.9403 68.4567C8.75108 67.9999 8.70158 67.4972 8.79804 67.0123C8.8945 66.5273 9.1326 66.0819 9.48223 65.7322C9.83187 65.3826 10.2773 65.1445 10.7623 65.048C11.2472 64.9516 11.7499 65.0011 12.2067 65.1903C12.6635 65.3795 13.054 65.7 13.3287 66.1111C13.6034 66.5222 13.75 67.0055 13.75 67.5C13.75 68.163 13.4866 68.7989 13.0178 69.2678C12.5489 69.7366 11.913 70 11.25 70Z" fill="#35C4E8"/>
</svg>
