<svg width="80" height="80" viewBox="0 0 80 80" fill="none" xmlns="http://www.w3.org/2000/svg">
<path d="M74.3522 38.104H70.983C70.0113 38.104 69.2208 38.8946 69.2208 39.8662V41.456L61.8047 41.4584V39.861C61.8045 38.8923 61.0163 38.104 60.0475 38.104H56.5124C55.6044 38.104 54.8655 38.8429 54.8655 39.7509V72.5428C54.8655 73.4509 55.6044 74.1896 56.5124 74.1896H74.3524C75.2605 74.1896 75.9992 73.4507 75.9992 72.5428V39.7509C75.9991 38.8428 75.2603 38.104 74.3522 38.104ZM73.6553 71.8457H57.2092V40.4479H59.4606V41.4585C59.4606 42.7496 60.5111 43.7999 61.802 43.7999H69.2888C70.5433 43.7999 71.5642 42.7793 71.5642 41.5246V40.4478H73.6552V71.8457H73.6553Z" fill="#35C4E8"/>
<path d="M66.3794 37.9435H64.5875C64.4336 37.9434 64.2812 37.9737 64.139 38.0326C63.9968 38.0915 63.8676 38.1778 63.7588 38.2866C63.65 38.3955 63.5637 38.5247 63.5048 38.6668C63.4459 38.809 63.4156 38.9614 63.4156 39.1153C63.4156 39.7627 63.9402 40.2872 64.5875 40.2872H66.3794C67.0267 40.2872 67.5513 39.7627 67.5513 39.1153C67.5513 38.468 67.0267 37.9435 66.3794 37.9435ZM37.3778 57.7909C37.3638 57.7159 37.3403 57.6427 37.3122 57.5708C37.2825 57.5005 37.2466 57.4331 37.2044 57.3692C37.1606 57.3052 37.1122 57.2458 37.0577 57.1909C37.0044 57.1378 36.9436 57.0878 36.8794 57.0456C36.752 56.9606 36.6093 56.9012 36.4592 56.8706C36.3075 56.8409 36.1515 56.8409 35.9999 56.8706C35.9264 56.8863 35.8514 56.9081 35.7811 56.9378C35.6394 56.997 35.5105 57.0829 35.4014 57.1909C35.3467 57.2458 35.2983 57.305 35.2547 57.3692C35.2125 57.4331 35.1766 57.5005 35.1483 57.5708C35.1188 57.6427 35.0952 57.7161 35.0811 57.7909C35.0499 57.942 35.0499 58.0979 35.0811 58.2489C35.095 58.3238 35.1185 58.3972 35.148 58.4675C35.1763 58.5394 35.212 58.6067 35.2544 58.6708C35.298 58.7347 35.3466 58.7941 35.4011 58.8489C35.565 59.0119 35.773 59.1233 35.9995 59.1692C36.0761 59.1833 36.1527 59.1911 36.2292 59.1911C36.3058 59.1911 36.3825 59.1833 36.4591 59.1692C36.6091 59.1387 36.7518 59.0792 36.8792 58.9942C36.9433 58.952 37.0042 58.902 37.0575 58.8489C37.2769 58.6284 37.4004 58.3302 37.4011 58.0191C37.4011 57.9441 37.3933 57.8659 37.3778 57.7909ZM65.805 67.3819C65.0874 67.2395 64.405 67.7872 64.405 68.5317C64.405 69.1924 64.9489 69.7036 65.5769 69.7036C66.2041 69.7036 66.7488 69.1905 66.7488 68.5317C66.7488 67.9931 66.3784 67.5008 65.805 67.3819ZM69.9744 57.462H61.1791C61.0252 57.462 60.8728 57.4923 60.7306 57.5512C60.5884 57.6101 60.4592 57.6964 60.3504 57.8052C60.2416 57.9141 60.1552 58.0432 60.0964 58.1854C60.0375 58.3276 60.0072 58.48 60.0072 58.6339C60.0072 59.2813 60.5317 59.8058 61.1791 59.8058H69.9744C70.2852 59.8058 70.5833 59.6823 70.803 59.4626C71.0228 59.2428 71.1463 58.9447 71.1463 58.6339C71.1463 57.9866 70.6217 57.462 69.9744 57.462ZM69.9744 62.7572H61.1791C60.5317 62.7572 60.0072 63.2817 60.0072 63.9291C60.0072 64.5764 60.5317 65.1009 61.1791 65.1009H69.9744C70.6216 65.1009 71.1463 64.5764 71.1463 63.9291C71.1463 63.2817 70.6217 62.7572 69.9744 62.7572ZM69.9744 46.8719H61.1791C61.0252 46.8719 60.8728 46.9022 60.7306 46.961C60.5884 47.0199 60.4592 47.1063 60.3504 47.2151C60.2416 47.3239 60.1552 47.4531 60.0964 47.5953C60.0375 47.7375 60.0072 47.8899 60.0072 48.0438C60.0072 48.6911 60.5317 49.2156 61.1791 49.2156H69.9744C70.2852 49.2156 70.5833 49.0922 70.803 48.8724C71.0228 48.6526 71.1463 48.3546 71.1463 48.0438C71.1463 47.733 71.0228 47.4349 70.803 47.2151C70.5833 46.9954 70.2852 46.8719 69.9744 46.8719ZM69.9744 52.1669H61.1791C61.0252 52.1669 60.8728 52.1972 60.7306 52.256C60.5884 52.3149 60.4592 52.4012 60.3504 52.5101C60.2416 52.6189 60.1552 52.7481 60.0964 52.8903C60.0375 53.0325 60.0072 53.1849 60.0072 53.3388C60.0072 53.9861 60.5317 54.5106 61.1791 54.5106H69.9744C70.2852 54.5106 70.5833 54.3872 70.803 54.1674C71.0228 53.9476 71.1463 53.6496 71.1463 53.3388C71.1463 53.028 71.0228 52.7299 70.803 52.5101C70.5833 52.2904 70.2852 52.1669 69.9744 52.1669ZM45.9624 24.4194H26.6859L25.8544 20.8681C25.7941 20.6107 25.6486 20.3813 25.4414 20.217C25.2343 20.0528 24.9777 19.9634 24.7133 19.9634H21.0269C20.8719 19.9617 20.718 19.9906 20.5743 20.0487C20.4305 20.1068 20.2998 20.1928 20.1895 20.3018C20.0793 20.4108 19.9917 20.5406 19.932 20.6837C19.8722 20.8267 19.8415 20.9802 19.8415 21.1352C19.8415 21.2903 19.8722 21.4438 19.932 21.5868C19.9917 21.7299 20.0793 21.8597 20.1895 21.9687C20.2998 22.0776 20.4305 22.1637 20.5743 22.2218C20.718 22.2798 20.8719 22.3088 21.0269 22.307H23.7841L27.1853 36.7328L27.1859 36.7363L27.8639 39.5578C27.9532 39.9292 28.1297 40.274 28.3788 40.5636C28.078 41.0485 27.9011 41.618 27.9011 42.2294C27.9011 43.9786 29.3241 45.402 31.0734 45.402C32.8228 45.402 34.2459 43.9789 34.2459 42.2294C34.2459 41.9424 34.2042 41.6655 34.1324 41.4008H39.595C39.5206 41.6707 39.4824 41.9494 39.4814 42.2294C39.4814 43.9786 40.9044 45.402 42.6539 45.402C44.4031 45.402 45.8264 43.9789 45.8264 42.2294C45.8264 40.6394 44.6494 39.3228 43.1217 39.0955C43.026 39.0703 42.9275 39.0574 42.8286 39.057H30.2022C30.1885 39.0571 30.1751 39.0524 30.1644 39.0439C30.1536 39.0354 30.146 39.0235 30.1428 39.0102L29.8124 37.6344H43.9395C44.2016 37.6344 44.4562 37.5465 44.6625 37.3849C44.8687 37.2232 45.0149 36.997 45.0775 36.7425L47.5994 26.4908C47.6019 26.4809 47.6041 26.471 47.6063 26.4609C47.8356 25.4116 47.0363 24.4194 45.9624 24.4194ZM42.6539 41.401C42.8736 41.4012 43.0842 41.4886 43.2396 41.6439C43.395 41.7992 43.4824 42.0099 43.4827 42.2295C43.4824 42.4493 43.395 42.6599 43.2397 42.8153C43.0843 42.9706 42.8736 43.058 42.6539 43.0583C42.4342 43.058 42.2236 42.9706 42.0683 42.8152C41.9129 42.6599 41.8256 42.4492 41.8253 42.2295C41.8256 42.0099 41.913 41.7993 42.0683 41.644C42.2237 41.4886 42.4342 41.4012 42.6539 41.401ZM31.0736 41.401C31.2933 41.4012 31.5039 41.4886 31.6593 41.6439C31.8146 41.7992 31.9021 42.0099 31.9024 42.2295C31.9021 42.4493 31.8147 42.6599 31.6593 42.8153C31.504 42.9706 31.2933 43.058 31.0736 43.0583C30.8539 43.058 30.6433 42.9706 30.488 42.8152C30.3326 42.6599 30.2453 42.4492 30.245 42.2295C30.2453 42.0099 30.3327 41.7993 30.488 41.644C30.6433 41.4886 30.8539 41.4012 31.0736 41.401ZM43.021 35.2906H29.2528L27.2377 26.763H45.1189L43.021 35.2906ZM11.9553 10.9619C11.3149 10.9619 10.7834 11.4797 10.7834 12.132C10.7834 12.7813 11.3091 13.3039 11.9553 13.3039C12.6045 13.3039 13.1272 12.7763 13.1272 12.132C13.1272 11.5011 12.6147 10.9619 11.9553 10.9619ZM16.6102 10.9836C15.8781 10.8399 15.2086 11.4038 15.2086 12.132C15.2086 12.762 15.7184 13.3039 16.3805 13.3039C16.6716 13.3046 16.9526 13.1969 17.1686 13.0016C17.3846 12.8064 17.5202 12.5378 17.5488 12.248C17.5775 11.9583 17.4973 11.6683 17.3237 11.4345C17.1502 11.2008 16.8958 11.04 16.6102 10.9836ZM21.0383 10.9836C20.3152 10.8402 19.6383 11.3958 19.6383 12.132C19.6383 12.7909 20.172 13.3039 20.8102 13.3039C21.4553 13.3039 21.982 12.7786 21.982 12.132C21.982 11.5952 21.6122 11.1027 21.0383 10.9836ZM60.1269 10.9609H26.1445C25.9906 10.9609 25.8382 10.9912 25.6961 11.0501C25.5539 11.109 25.4247 11.1953 25.3159 11.3041C25.207 11.413 25.1207 11.5422 25.0618 11.6843C25.0029 11.8265 24.9726 11.9789 24.9727 12.1328C24.9727 12.4436 25.0961 12.7417 25.3159 12.9615C25.5357 13.1812 25.8337 13.3047 26.1445 13.3047H60.1269C60.7742 13.3047 61.2988 12.7802 61.2988 12.1328C61.2988 11.4855 60.7742 10.9609 60.1269 10.9609Z" fill="#35C4E8"/>
<path d="M62.3761 1.80939H5.70719C2.56016 1.80923 0 4.36939 0 7.51657V45.307C0 45.9544 0.524531 46.4789 1.17188 46.4789C1.48268 46.4789 1.78075 46.3555 2.00052 46.1357C2.22028 45.9159 2.34375 45.6178 2.34375 45.307V7.51657C2.34375 5.66204 3.8525 4.15314 5.70719 4.15314H62.3761C62.6869 4.15314 62.985 4.02967 63.2047 3.8099C63.4245 3.59013 63.548 3.29206 63.548 2.98126C63.548 2.33392 63.0234 1.80939 62.3761 1.80939Z" fill="#35C4E8"/>
<path d="M78.8281 67.8353C79.4755 67.8353 80 67.3108 80 66.6635V39.3427C80 36.4534 77.6495 34.1028 74.7602 34.1028H72.4586V7.51657C72.4586 4.37548 69.9053 1.80939 66.7516 1.80939H60.0327C59.8788 1.80937 59.7264 1.83966 59.5842 1.89855C59.442 1.95743 59.3128 2.04375 59.204 2.15258C59.0951 2.2614 59.0088 2.39059 58.9499 2.53278C58.8911 2.67497 58.8608 2.82736 58.8608 2.98126C58.8608 3.29206 58.9842 3.59013 59.204 3.8099C59.4238 4.02967 59.7219 4.15314 60.0327 4.15314H66.7514C68.6108 4.15314 70.1148 5.66642 70.1148 7.51657V34.103H67.8742V8.30736C67.8742 7.23314 67.0003 6.36157 65.9284 6.36157H6.53031C5.45969 6.36157 4.58453 7.2322 4.58453 8.30736V48.047C4.58453 49.1199 5.4575 49.9928 6.53031 49.9928H50.8644V52.2264H2.34375V42.9635C2.34375 42.6527 2.22028 42.3546 2.00052 42.1348C1.78075 41.915 1.48268 41.7916 1.17188 41.7916C1.01798 41.7916 0.865581 41.8218 0.723394 41.8807C0.581206 41.9396 0.452011 42.0259 0.343188 42.1348C0.234366 42.2436 0.148047 42.3728 0.0891619 42.515C0.0302769 42.6572 -2.05135e-05 42.8096 1.04204e-08 42.9635V58.0228C1.04204e-08 61.1699 2.56016 63.7299 5.70719 63.7299H27.3658L26.7989 68.5252C26.6973 69.3605 26.2286 70.193 25.6323 70.5974L24.6417 71.2694H22.5133C20.6052 71.2694 19.0527 72.8219 19.0527 74.7302C19.0527 76.6385 20.6052 78.1908 22.5133 78.1908H49.9452C51.0387 78.1908 52.0148 77.6803 52.6494 76.8858C53.5725 77.6972 54.7812 78.1908 56.1041 78.1908H74.7602C77.6494 78.1908 80 75.8403 80 72.951V66.6636C80 66.0163 79.4755 65.4917 78.8281 65.4917C78.6742 65.4917 78.5218 65.522 78.3796 65.5809C78.2375 65.6398 78.1083 65.7261 77.9994 65.8349C77.8906 65.9437 77.8043 66.0729 77.7454 66.2151C77.6865 66.3573 77.6562 66.5097 77.6562 66.6636V72.951C77.6562 74.5478 76.3572 75.8469 74.7603 75.8469H56.1042C54.5073 75.8469 53.2083 74.5478 53.2083 72.951V39.3428C53.2083 37.7459 54.5073 36.4469 56.1042 36.4469H74.7603C76.3572 36.4469 77.6562 37.7459 77.6562 39.3428V66.6635C77.6562 66.9743 77.7797 67.2723 77.9995 67.4921C78.2193 67.7119 78.5173 67.8353 78.8281 67.8353ZM5.70719 61.3861C3.85266 61.3861 2.34375 59.8774 2.34375 58.023V54.5703H50.8642V61.3861H5.70719ZM50.8644 63.7299V71.3942C50.565 71.3115 50.2558 71.2695 49.9452 71.2694H47.8169L46.8262 70.5974C46.2298 70.1928 45.7611 69.3597 45.66 68.528L45.0928 63.7299H50.8644ZM44.2608 71.2694H28.198C28.687 70.5527 29.0181 69.6944 29.1258 68.8067L29.1263 68.8031L29.7259 63.7297H42.7323L43.3325 68.8064C43.4403 69.6942 43.7716 70.5525 44.2608 71.2694ZM49.9452 75.8469H22.5133C21.8975 75.8469 21.3964 75.346 21.3964 74.7302C21.3964 74.1144 21.8973 73.6133 22.5133 73.6133H49.9452C50.5609 73.6133 51.0619 74.1142 51.0619 74.7302C51.062 75.346 50.5611 75.8469 49.9452 75.8469ZM65.5303 34.103H56.1044C53.2152 34.103 50.8645 36.4534 50.8645 39.3428V47.6491H6.92828V17.5834H65.5303V34.103ZM65.5303 15.2397H6.92828V8.70533H65.5303V15.2397Z" fill="#35C4E8"/>
</svg>
