<svg width="80" height="80" viewBox="0 0 80 80" fill="none" xmlns="http://www.w3.org/2000/svg">
<path fill-rule="evenodd" clip-rule="evenodd" d="M67.5 6.25V12.6258C70.3494 13.2064 72.5 15.7317 72.5 18.75V56.25C72.5 59.6963 69.6963 62.5 66.25 62.5H47.8509L49.7259 70H53.75C57.1963 70 60 72.8037 60 76.25C60 76.5815 59.8683 76.8995 59.6339 77.1339C59.3995 77.3683 59.0815 77.5 58.75 77.5H21.25C20.9185 77.5 20.6005 77.3683 20.3661 77.1339C20.1317 76.8995 20 76.5815 20 76.25C20 72.8037 22.8038 70 26.25 70H30.2741L32.1491 62.5H13.75C10.3037 62.5 7.5 59.6963 7.5 56.25V18.75C7.5 15.7317 9.65062 13.2064 12.5 12.6258V6.25C12.5 4.18234 14.1823 2.5 16.25 2.5H63.75C65.8177 2.5 67.5 4.18234 67.5 6.25ZM70 52.5V18.75C70 17.1205 68.9548 15.7311 67.5 15.215V46.25C67.5 48.3177 65.8177 50 63.75 50H56.7678V47.5H63.75C64.4392 47.5 65 46.9392 65 46.25V15H15V46.25C15 46.9392 15.5608 47.5 16.25 47.5H23.2322V50H16.25C14.1823 50 12.5 48.3177 12.5 46.25V15.215C11.0452 15.7311 10 17.1205 10 18.75V52.5H25.7322V55H10V56.25C10 58.3178 11.6822 60 13.75 60H66.25C68.3178 60 70 58.3178 70.0003 56.25V55H54.2678V52.5H70ZM63.75 5H16.25C15.5608 5 15 5.56078 15 6.25V12.5H65V6.25C65 5.56078 64.4392 5 63.75 5ZM26.25 72.5C24.6203 72.5 23.2302 73.545 22.7142 75H57.2858C56.7698 73.545 55.3797 72.5 53.75 72.5H26.25ZM32.8511 70H47.1491L45.2741 62.5H34.7261L32.8511 70ZM17.8661 7.86612C17.6317 8.10054 17.5 8.41848 17.5 8.75C17.5 9.08152 17.6317 9.39946 17.8661 9.63388C18.1005 9.8683 18.4185 10 18.75 10C19.0815 10 19.3995 9.8683 19.6339 9.63388C19.8683 9.39946 20 9.08152 20 8.75C20 8.41848 19.8683 8.10054 19.6339 7.86612C19.3995 7.6317 19.0815 7.5 18.75 7.5C18.4185 7.5 18.1005 7.6317 17.8661 7.86612ZM22.8661 7.86612C22.6317 8.10054 22.5 8.41848 22.5 8.75C22.5 9.08152 22.6317 9.39946 22.8661 9.63388C23.1005 9.8683 23.4185 10 23.75 10C24.0815 10 24.3995 9.8683 24.6339 9.63388C24.8683 9.39946 25 9.08152 25 8.75C25 8.41848 24.8683 8.10054 24.6339 7.86612C24.3995 7.6317 24.0815 7.5 23.75 7.5C23.4185 7.5 23.1005 7.6317 22.8661 7.86612ZM27.8661 7.86612C27.6317 8.10054 27.5 8.41848 27.5 8.75C27.5 9.08152 27.6317 9.39946 27.8661 9.63388C28.1005 9.8683 28.4185 10 28.75 10C29.0815 10 29.3995 9.8683 29.6339 9.63388C29.8683 9.39946 30 9.08152 30 8.75C30 8.41848 29.8683 8.10054 29.6339 7.86612C29.3995 7.6317 29.0815 7.5 28.75 7.5C28.4185 7.5 28.1005 7.6317 27.8661 7.86612Z" fill="#35C4E8"/>
<path d="M54.3328 45.9996V28.6666C54.3328 28.3129 54.1924 27.9738 53.9423 27.7238C53.6923 27.4737 53.3531 27.3332 52.9995 27.3332H40.9997V23.3333C40.9997 22.9797 40.8593 22.6406 40.6092 22.3905C40.3592 22.1405 40.02 22 39.6664 22H27.6666C27.313 22 26.9739 22.1405 26.7238 22.3905C26.4738 22.6406 26.3333 22.9797 26.3333 23.3333V45.9996H25V48.6662H55.6662V45.9996H54.3328ZM38.3331 45.9996H28.9999V24.6666H38.3331V45.9996ZM47.6663 45.9996H44.9997V41.9997H47.6663V45.9996ZM51.6662 31.3332H48.9996V33.9998H51.6662V35.3331H48.9996V37.9997H51.6662V45.9996H50.3329V40.6664C50.3329 40.3127 50.1924 39.9736 49.9424 39.7236C49.6923 39.4735 49.3532 39.333 48.9996 39.333H43.6664C43.3127 39.333 42.9736 39.4735 42.7236 39.7236C42.4735 39.9736 42.333 40.3127 42.333 40.6664V45.9996H40.9997V37.9997H43.6664V35.3331H40.9997V33.9998H43.6664V31.3332H40.9997V29.9999H51.6662V31.3332Z" fill="#35C4E8"/>
<path d="M30.533 21.5999H33.1996V24.2665H30.533V21.5999ZM34.533 21.5999H37.1996V24.2665H34.533V21.5999ZM45.1994 26.9332H47.8661V29.5998H45.1994V26.9332ZM45.1994 30.9331H47.8661V33.5997H45.1994V30.9331ZM30.533 25.5998H33.1996V28.2665H30.533V25.5998ZM34.533 25.5998H37.1996V28.2665H34.533V25.5998ZM30.533 29.5998H33.1996V32.2664H30.533V29.5998ZM34.533 29.5998H37.1996V32.2664H34.533V29.5998ZM30.533 33.5997H33.1996V36.2663H30.533V33.5997ZM34.533 33.5997H37.1996V36.2663H34.533V33.5997ZM30.533 37.5996H33.1996V40.2663H30.533V37.5996ZM34.533 37.5996H37.1996V40.2663H34.533V37.5996ZM49.1994 46.9328H30.533C30.1794 46.9328 29.8403 47.0733 29.5902 47.3233C29.3402 47.5734 29.1997 47.9125 29.1997 48.2661V53.5994C29.1997 53.953 29.3402 54.2921 29.5902 54.5422C29.8403 54.7922 30.1794 54.9327 30.533 54.9327H49.1994C49.553 54.9327 49.8921 54.7922 50.1422 54.5422C50.3922 54.2921 50.5327 53.953 50.5327 53.5994V48.2661C50.5327 47.9125 50.3922 47.5734 50.1422 47.3233C49.8921 47.0733 49.553 46.9328 49.1994 46.9328ZM47.8661 52.2661H31.8663V49.5994H47.8661V52.2661Z" fill="#35C4E8"/>
</svg>
