<svg width="120" height="120" viewBox="0 0 120 120" fill="none" xmlns="http://www.w3.org/2000/svg">
<path d="M0 59.997C0 83.7462 13.8019 104.27 33.8159 113.996L5.19484 35.5793C1.86564 43.0413 0 51.2989 0 59.997Z" fill="white" fill-opacity="0.2"/>
<path d="M100.506 56.9691C100.506 49.554 97.8423 44.4188 95.5577 40.4216C92.5162 35.4795 89.6654 31.2941 89.6654 26.352C89.6654 20.8365 93.8489 15.7025 99.7409 15.7025C100.007 15.7025 100.259 15.7356 100.519 15.7504C89.8435 5.97095 75.6213 0 60.0006 0C39.0389 0 20.5971 10.7546 9.86871 27.0436C11.2763 27.0861 12.6032 27.1156 13.7299 27.1156C20.006 27.1156 29.7204 26.3542 29.7204 26.3542C32.9549 26.1636 33.3363 30.9141 30.1054 31.2966C30.1054 31.2966 26.8547 31.6788 23.2379 31.8684L45.0877 96.8575L58.2184 57.4782L48.8704 31.8662C45.6392 31.6765 42.5782 31.2941 42.5782 31.2941C39.345 31.1047 39.7242 26.1614 42.9574 26.352C42.9574 26.352 52.8661 27.1134 58.762 27.1134C65.0368 27.1134 74.7525 26.352 74.7525 26.352C77.9893 26.1614 78.3694 30.9119 75.1375 31.2941C75.1375 31.2941 71.88 31.6765 68.27 31.8662L89.9534 96.3632L95.9382 76.3646C98.532 68.066 100.506 62.1053 100.506 56.9691Z" fill="white" fill-opacity="0.2"/>
<path d="M61.0534 65.2461L43.0512 117.556C48.4261 119.136 54.1106 120 60.0007 120C66.9878 120 73.6885 118.792 79.9258 116.599C79.7648 116.342 79.6187 116.069 79.4988 115.772L61.0534 65.2461Z" fill="white" fill-opacity="0.2"/>
<path d="M112.65 31.2117C112.908 33.1228 113.054 35.1744 113.054 37.3813C113.054 43.4698 111.917 50.3141 108.492 58.8718L90.1639 111.86C108.002 101.458 120 82.1333 120 59.9987C120.001 49.5674 117.336 39.7581 112.65 31.2117Z" fill="white" fill-opacity="0.2"/>
</svg>
