<svg width="40" height="40" viewBox="0 0 40 40" fill="none" xmlns="http://www.w3.org/2000/svg">
<path d="M28.7937 33C28.4435 33 28.0631 32.8533 27.6574 32.5611C25.7644 31.198 23.8722 29.8339 21.9808 28.4689L21.5723 28.1744C20.9505 27.7259 20.9022 27.7279 20.282 28.2361C19.1564 29.1589 18.1509 29.9728 17.208 30.7245C16.9931 30.896 16.3385 31.4179 15.6473 31.2084C14.9581 30.9999 14.7108 30.2117 14.6302 29.9527C14.4398 29.3453 14.2489 28.7381 14.0576 28.1311C13.4896 26.3263 12.9021 24.4601 12.3422 22.6177C12.276 22.3997 12.2136 22.348 12.0332 22.2834C10.6343 21.7817 9.2173 21.2609 7.84694 20.7573C7.3569 20.5775 6.86712 20.3977 6.37761 20.218C6.01873 20.0865 5.47659 19.8877 5.11238 19.3817C5.03933 19.2801 5.00004 19.1584 5 19.0336C5 18.1663 5.34478 17.6652 6.15275 17.3569C15.6458 13.7365 24.2066 10.4701 32.8446 7.15906C33.9925 6.71869 34.6075 7.27572 34.9208 7.82067C34.9727 7.9111 35 8.01336 35 8.11742C35 8.44363 30.1831 31.3796 30.1344 31.6116C29.9888 32.3042 29.6813 32.7449 29.2212 32.9214C29.0849 32.9738 28.9399 33.0004 28.7937 33ZM20.9387 26.6447C21.349 26.6447 21.7667 26.8327 22.283 27.205L22.6914 27.4996C24.583 28.8639 26.475 30.2278 28.3673 31.5912C28.6154 31.7699 28.7457 31.7962 28.7836 31.7999C28.8093 31.772 28.8879 31.6654 28.9506 31.3672C30.4354 24.3002 33.3792 10.187 33.7571 8.25116C33.6754 8.17585 33.5583 8.17025 33.2794 8.27713C24.6405 11.5884 16.079 14.8548 6.58524 18.4749C6.32806 18.5729 6.24358 18.6297 6.2178 18.8131C6.39424 18.936 6.58914 19.0303 6.79529 19.0928C7.28534 19.2726 7.77538 19.4525 8.26543 19.6327C9.63347 20.1355 11.0482 20.6553 12.4427 21.1553C12.6991 21.2379 12.9304 21.3835 13.1149 21.5786C13.2994 21.7737 13.4311 22.0119 13.4978 22.2711C14.0559 24.1078 14.6425 25.9711 15.2096 27.7731C15.401 28.3806 15.592 28.9882 15.7828 29.596C15.8811 29.9098 15.9685 30.0222 16.001 30.0554C16.0474 30.0454 16.1859 30.0004 16.4506 29.7893C17.389 29.0411 18.3903 28.2305 19.5117 27.3112C20.057 26.8657 20.4936 26.6447 20.9387 26.6447ZM16.065 27.7957H16.0487C15.3349 27.7862 15.157 27.1673 15.09 26.9342C14.9284 26.3722 14.7648 25.8108 14.5991 25.2499C14.3137 24.2768 14.0184 23.2706 13.7439 22.2742C13.567 21.6319 13.5863 20.7252 14.6831 20.0525C18.3731 17.7888 27.4961 12.2237 27.6146 12.1612C27.6847 12.1243 27.7613 12.1014 27.8402 12.0938C28.3163 12.0485 28.6077 12.3008 28.7228 12.5523C28.794 12.7283 28.8081 12.922 28.7633 13.1064C28.7184 13.2907 28.6168 13.4566 28.4725 13.5811C27.9012 14.115 20.9352 20.5445 18.0336 23.2029C17.583 23.6158 17.3626 24.0529 17.3187 24.6199C17.2684 25.2713 17.1677 25.9184 17.0689 26.5432L17.0231 26.838C16.9085 27.6267 16.4427 27.7957 16.0654 27.7957H16.065ZM24.9866 15.1647C22.0927 16.9287 17.9098 19.4822 15.3188 21.0716C14.849 21.3599 14.8125 21.6056 14.9097 21.9582C15.1816 22.9451 15.4753 23.9464 15.7593 24.9147C15.8332 25.1667 15.907 25.4187 15.9809 25.6706C16.0365 25.289 16.0854 24.9051 16.1143 24.5282C16.1723 23.6774 16.5676 22.8841 17.2138 22.3216C19.0586 20.6319 22.5462 17.4174 24.9868 15.1647H24.9866Z" fill="white"/>
</svg>
