<svg width="40" height="24" viewBox="0 0 40 24" fill="none" xmlns="http://www.w3.org/2000/svg">
<path d="M37.4993 23.3346H32.499C32.1195 23.3355 31.7447 23.2495 31.4035 23.0834C31.0622 22.9172 30.7634 22.6753 30.53 22.376L25.6548 16.1572C25.5481 16.0207 25.4015 15.9209 25.2354 15.8717C25.0693 15.8225 24.892 15.8262 24.7282 15.8825C24.5644 15.9386 24.4222 16.0443 24.3213 16.185C24.2204 16.3257 24.1658 16.4943 24.1652 16.6674V19.1676C24.1652 21.47 21.9254 23.3346 19.165 23.3346C18.0858 23.3444 17.0265 23.0444 16.1127 22.4701C9.11232 17.9905 4.36202 12.334 0.237057 3.56292C0.058234 3.18207 -0.0215848 2.76225 0.00499424 2.34235C0.0315733 1.92245 0.163691 1.51604 0.389108 1.16078C0.614526 0.805518 0.925954 0.512888 1.29454 0.309997C1.66314 0.107105 2.07697 0.000513585 2.49771 9.52886e-05H7.49794C7.98737 -0.00107594 8.46638 0.141412 8.87559 0.409895C9.2848 0.678379 9.60622 1.06105 9.80001 1.51048L10.3625 2.82312C11.2123 4.7951 12.3537 6.6282 13.7482 8.26103C13.7937 8.30986 13.8584 8.33666 13.9252 8.33392C13.9556 8.33681 13.9863 8.33329 14.0153 8.32357C14.0443 8.31386 14.0709 8.29816 14.0934 8.27751C14.116 8.25696 14.1341 8.23188 14.1464 8.20389C14.1587 8.17591 14.165 8.14565 14.1648 8.11509V4.85446C13.021 4.44585 12.3367 3.27423 12.5421 2.07722C12.7475 0.880293 13.7835 0.00415798 14.9983 9.52886e-05H21.665C23.0457 9.52886e-05 24.1651 1.11952 24.1651 2.50021V8.33392C24.1654 8.51505 24.2247 8.69114 24.3341 8.83555C24.4434 8.97995 24.5968 9.08481 24.771 9.13424C24.9453 9.18367 25.1309 9.17498 25.2998 9.10949C25.4686 9.044 25.6116 8.92527 25.7069 8.77129L30.3632 1.19796C30.5851 0.830527 30.8986 0.526976 31.273 0.317007C31.6473 0.107037 32.0698 -0.0021605 32.499 9.52886e-05H37.4993C37.9526 0.00027596 38.3974 0.123737 38.786 0.357264C39.1746 0.590792 39.4924 0.925593 39.7053 1.32583C39.9183 1.72608 40.0184 2.17669 39.9949 2.62945C39.9714 3.0822 39.8253 3.52005 39.5721 3.89614L34.3219 11.1777C34.2185 11.3201 34.1628 11.4915 34.1628 11.6674C34.1628 11.8433 34.2185 12.0147 34.3219 12.1571L39.5306 19.376C39.7988 19.7496 39.9588 20.19 39.9929 20.6487C40.027 21.1073 39.9339 21.5665 39.724 21.9757C39.514 22.3849 39.1952 22.7283 38.8027 22.968C38.4102 23.2078 37.9592 23.3346 37.4993 23.3346ZM24.9987 14.1673C25.3782 14.1665 25.7529 14.2525 26.0941 14.4187C26.4353 14.5848 26.734 14.8267 26.9675 15.126L31.8425 21.3448C31.9202 21.445 32.0197 21.5262 32.1335 21.5821C32.2472 21.6381 32.3723 21.6673 32.499 21.6677H37.4993C37.6531 21.6681 37.8041 21.6259 37.9355 21.5458C38.0669 21.4657 38.1735 21.3508 38.2436 21.2138C38.3137 21.0768 38.3445 20.9231 38.3326 20.7697C38.3207 20.6163 38.2666 20.4692 38.1762 20.3446L32.9678 13.1257C32.6601 12.6998 32.4944 12.1876 32.4944 11.6622C32.4944 11.1367 32.6601 10.6246 32.9678 10.1986L38.2076 2.93789C38.29 2.80684 38.3333 2.65501 38.3324 2.50021C38.3324 2.04003 37.9595 1.66674 37.4993 1.66674H32.499C32.357 1.66684 32.2174 1.70327 32.0934 1.77256C31.9694 1.84185 31.8652 1.9417 31.7906 2.06261L27.1341 9.63586C26.5512 10.5936 25.4018 11.0462 24.3223 10.7428C23.2429 10.4397 22.4976 9.45491 22.4986 8.33392V2.50021C22.4986 2.04003 22.1253 1.66674 21.6651 1.66674H14.9982C14.5377 1.66674 14.1647 2.04003 14.1647 2.50021C14.1647 2.96039 14.5377 3.33369 14.9982 3.33369H15.8314V8.11516C15.8268 8.50146 15.7049 8.87723 15.4819 9.19273C15.259 9.50822 14.9455 9.74855 14.5829 9.88189C14.2203 10.0151 13.8257 10.0351 13.4515 9.93907C13.0773 9.84308 12.7411 9.63569 12.4874 9.34436C10.986 7.5863 9.75709 5.61285 8.8416 3.48995L8.26845 2.17738C8.20473 2.02573 8.09756 1.89632 7.96043 1.80545C7.82331 1.71458 7.66236 1.66632 7.49787 1.66674H2.49763C2.21324 1.6683 1.94917 1.81479 1.79721 2.05527C1.72246 2.17359 1.67871 2.30884 1.67001 2.44853C1.66132 2.58822 1.68794 2.72784 1.74744 2.85453C5.77904 11.4276 10.2061 16.7092 17.0189 21.0741C17.6643 21.4695 18.4081 21.6752 19.165 21.6677C20.9983 21.6677 22.4986 20.5428 22.4986 19.1676V16.6674C22.4986 15.2868 23.6177 14.1673 24.9987 14.1673Z" fill="white"/>
</svg>
