<svg width="27" height="28" viewBox="0 0 27 28" fill="none" xmlns="http://www.w3.org/2000/svg">
<path d="M20.4661 16.091C20.2985 15.9967 20.1085 15.8898 19.8796 15.752C19.7518 15.6749 19.5912 15.5694 19.421 15.4577C18.5473 14.8843 17.8853 14.4784 17.3218 14.4784C17.1898 14.4784 17.0649 14.5007 16.9511 14.5446C16.4574 14.7347 16.052 15.2427 15.6599 15.7338C15.5163 15.9137 15.3106 16.1714 15.1858 16.2865C14.6908 16.1965 13.6467 15.5497 12.52 14.423C11.392 13.295 10.7451 12.2498 10.6563 11.7559C10.7713 11.6307 11.0309 11.4235 11.212 11.2789C11.7012 10.8883 12.2072 10.4844 12.3984 9.99217C12.6422 9.3598 12.1953 8.6035 11.4854 7.52206C11.3737 7.35185 11.2682 7.1911 11.1916 7.06433C11.0533 6.83454 10.9465 6.64442 10.8522 6.47686C10.4651 5.789 10.2094 5.33438 9.24853 5.33438C8.62489 5.33438 7.74315 5.92371 7.14589 6.50814C6.2779 7.35767 5.7998 8.33847 5.7998 9.27179C5.80146 11.8067 7.21618 14.7121 9.68127 17.2458C9.6855 17.25 9.68973 17.2511 9.69409 17.2554C12.2278 19.7205 15.1348 21.1304 17.6696 21.1304H17.6706C18.6027 21.1304 19.5838 20.6578 20.4333 19.7903C21.0182 19.1931 21.6083 18.3178 21.6083 17.6945C21.6083 16.7338 21.154 16.4781 20.4661 16.091ZM17.6699 19.8208C15.5107 19.8192 12.8768 18.5107 10.6229 16.3203C8.43232 14.0662 7.1238 11.4321 7.12241 9.27311C7.12241 7.96716 8.81712 6.7255 9.2603 6.65745C9.35083 6.65785 9.39831 6.6632 9.42092 6.66704C9.47951 6.73449 9.59596 6.94147 9.69965 7.12576C9.79348 7.29254 9.91033 7.50017 10.0591 7.74742C10.149 7.89641 10.2612 8.06722 10.3799 8.24801C10.6045 8.59028 11.0561 9.27827 11.1322 9.57194C11.0049 9.75213 10.61 10.0674 10.387 10.2454C9.81623 10.7011 9.32332 11.0946 9.32332 11.6506C9.32471 12.9938 11.0548 14.8282 11.585 15.3584C12.1152 15.8886 13.9496 17.6187 15.2956 17.62C15.8481 17.6182 16.2399 17.1274 16.6936 16.559C16.8726 16.3349 17.1898 15.9375 17.3707 15.8109C17.6641 15.8865 18.3529 16.3386 18.6954 16.5635C18.8762 16.6821 19.047 16.7942 19.1969 16.8847C19.4433 17.033 19.6508 17.1498 19.8177 17.2437C20.0019 17.3474 20.209 17.4639 20.2764 17.5225C20.2802 17.545 20.2855 17.5925 20.286 17.683C20.2174 18.1257 18.9754 19.8192 17.6699 19.8208Z" fill="white"/>
<path d="M26.8519 13.5486C26.8055 9.97507 25.3711 6.59823 22.813 4.0401C20.2077 1.43483 16.7688 0 13.1296 0C9.61656 0 6.33018 1.35177 3.87567 3.80621C1.69758 5.9843 0.36128 8.88926 0.112708 11.9861C-0.123035 14.9242 0.624929 17.8976 2.2221 20.3976L0.0410927 26.2929C-0.0504271 26.5404 0.0138485 26.8186 0.204757 27.0007C0.330201 27.1205 0.494526 27.1837 0.661431 27.1837C0.748454 27.1837 0.836271 27.1585 0.919525 27.1231L6.59978 24.7059C8.76821 26.0555 11.2477 26.7511 13.7937 26.7511H13.794C17.3064 26.7511 20.5927 25.4155 23.0469 22.9613C25.547 20.4611 26.8984 17.1286 26.8519 13.5486ZM22.1116 22.0422C19.9071 24.2467 16.953 25.4608 13.7937 25.4607C11.3884 25.4606 9.04833 24.7567 7.02629 23.4247C6.91666 23.3525 6.78996 23.3157 6.66253 23.3157C6.57504 23.3157 6.48723 23.3331 6.40437 23.3683L1.81277 25.3157L3.57836 20.5432C3.65223 20.3435 3.62538 20.1204 3.50628 19.9439C0.261032 15.1361 0.809688 8.74253 4.81084 4.74144C7.01552 2.53677 9.96981 1.32254 13.1296 1.32254C16.4155 1.32254 19.5223 2.61976 21.8778 4.97527C24.1907 7.28813 25.4875 10.339 25.5294 13.5658C25.5713 16.7861 24.3575 19.7964 22.1116 22.0422Z" fill="white"/>
</svg>
